<svg xmlns="http://www.w3.org/2000/svg" viewBox="0 0 700 980">
  <defs>
    <linearGradient id="sky" x1="0" x2="1" y1="0" y2="1">
      <stop offset="0" stop-color="#f3c979"/>
      <stop offset=".42" stop-color="#9eb892"/>
      <stop offset="1" stop-color="#1d3c31"/>
    </linearGradient>
    <filter id="blur"><feGaussianBlur stdDeviation="20"/></filter>
  </defs>
  <rect width="700" height="980" fill="url(#sky)"/>
  <circle cx="515" cy="150" r="82" fill="#fff2bf" opacity=".75"/>
  <path d="M0 500 L110 315 L225 500 L360 220 L535 520 L650 350 L700 420 L700 980 L0 980Z" fill="#163026"/>
  <path d="M0 630 C130 560 270 585 390 640 C520 700 625 650 700 610 L700 980 L0 980Z" fill="#557858"/>
  <path d="M0 740 C165 680 330 725 460 755 C560 778 640 744 700 720 L700 980 L0 980Z" fill="#c7b28a"/>
  <g opacity=".5" filter="url(#blur)">
    <ellipse cx="180" cy="335" rx="180" ry="34" fill="#fff7ea"/>
    <ellipse cx="540" cy="410" rx="170" ry="40" fill="#fff7ea"/>
  </g>
  <g transform="translate(115 515)">
    <rect x="0" y="110" width="210" height="145" rx="6" fill="#efe2cc"/>
    <polygon points="-18,110 104,30 228,110" fill="#b9643e"/>
    <rect x="38" y="166" width="54" height="89" fill="#6d4a37"/>
    <rect x="125" y="160" width="52" height="42" fill="#274b3d"/>
  </g>
  <g transform="translate(370 570)">
    <rect x="0" y="80" width="150" height="112" rx="6" fill="#e6d8c2"/>
    <polygon points="-15,80 75,20 165,80" fill="#a75337"/>
    <rect x="92" y="126" width="35" height="66" fill="#6d4a37"/>
    <rect x="24" y="120" width="42" height="34" fill="#274b3d"/>
  </g>
  <path d="M0 890 C180 830 385 890 700 850 L700 980 L0 980Z" fill="#0e1714"/>
</svg>