<svg xmlns="http://www.w3.org/2000/svg" viewBox="0 0 1000 700">
  <defs>
    <linearGradient id="bg" x1="0" x2="1" y1="0" y2="1">
      <stop stop-color="#f4d99f"/><stop offset=".55" stop-color="#8fad8d"/><stop offset="1" stop-color="#1d3c31"/>
    </linearGradient>
    <filter id="soft"><feGaussianBlur stdDeviation="16"/></filter>
  </defs>
  <rect width="1000" height="700" fill="url(#bg)"/>
  <circle cx="815" cy="120" r="70" fill="#fff7cc" opacity=".65"/>
  <path d="M0 410 L150 230 L285 405 L430 165 L610 430 L750 260 L1000 430 L1000 700 L0 700Z" fill="#173228"/>
  <path d="M0 505 C170 440 320 470 480 530 C650 590 800 540 1000 490 L1000 700 L0 700Z" fill="#5f835f"/>
  <path d="M80 620 C220 530 385 580 520 555 C650 532 760 575 915 520" fill="none" stroke="#fff7ea" stroke-width="44" stroke-linecap="round" opacity=".25"/>
  <path d="M130 590 C265 510 390 550 520 530 C655 510 760 545 900 500" fill="none" stroke="#6b4a32" stroke-width="12" stroke-linecap="round" opacity=".48"/>
  <g transform="translate(410 300)">
    <rect x="0" y="95" width="190" height="130" rx="7" fill="#f2e4cd"/>
    <polygon points="-18,95 95,20 208,95" fill="#b35f3b"/>
    <rect x="34" y="145" width="48" height="80" fill="#6d4a37"/>
    <rect x="115" y="145" width="48" height="40" fill="#274b3d"/>
  </g>
  <g transform="translate(595 230)">
    <rect x="0" y="85" width="135" height="105" rx="7" fill="#e5d8c2"/>
    <polygon points="-12,85 67,30 148,85" fill="#a75337"/>
    <path d="M67 30v-48M47 -2h40" stroke="#173228" stroke-width="10" stroke-linecap="round"/>
  </g>
  <g transform="translate(305 390)">
    <rect x="0" y="70" width="135" height="100" rx="7" fill="#dfd2bd"/>
    <polygon points="-14,70 68,16 150,70" fill="#c06c42"/>
    <rect x="50" y="105" width="38" height="65" fill="#6d4a37"/>
  </g>
  <text x="55" y="80" font-family="Georgia, serif" font-size="48" font-weight="700" fill="#173228">Χάρτης εμπειρίας</text>
</svg>